<?xml version="1.0" encoding="UTF-8" standalone="no"?>
<!DOCTYPE svg PUBLIC "-//W3C//DTD SVG 1.1//EN" "http://www.w3.org/Graphics/SVG/1.1/DTD/svg11.dtd">
<svg version="1.1" xmlns="http://www.w3.org/2000/svg" xmlns:xlink="http://www.w3.org/1999/xlink" preserveAspectRatio="xMidYMid meet" viewBox="0 0 110 110" width="108" height="108"><defs><path d="M45.89 37.3L37.18 37.3L37.18 50.37L50.24 50.37L50.24 42.74L52.42 42.74L52.42 52.54L35 52.54L35 35.12L45.89 35.12L45.89 37.3ZM45.46 45.15L45.46 45.15L42.94 47.67L38.26 43L40.79 40.48L42.94 42.63L48.81 36.76L51.33 39.28L45.46 45.15Z" id="a27Ze40Hw8"></path><path d="M66.17 55.17C67.27 55.17 68.17 56.06 68.17 57.17C68.17 57.57 68.17 56.77 68.17 57.17C68.17 58.27 67.27 59.17 66.17 59.17C61.23 59.17 48.43 59.17 43.5 59.17C42.4 59.17 41.5 58.27 41.5 57.17C41.5 56.77 41.5 57.57 41.5 57.17C41.5 56.06 42.4 55.17 43.5 55.17C48.43 55.17 61.23 55.17 66.17 55.17Z" id="cxPMzWsiw"></path><path d="M72 62.5C73.1 62.5 74 63.4 74 64.5C74 64.9 74 64.1 74 64.5C74 65.6 73.1 66.5 72 66.5C67.07 66.5 54.27 66.5 49.33 66.5C48.23 66.5 47.33 65.6 47.33 64.5C47.33 64.1 47.33 64.9 47.33 64.5C47.33 63.4 48.23 62.5 49.33 62.5C54.27 62.5 67.07 62.5 72 62.5Z" id="d1xI2CqeMj"></path><path d="M59.67 69.33C60.77 69.33 61.67 70.23 61.67 71.33C61.67 71.73 61.67 70.93 61.67 71.33C61.67 72.44 60.77 73.33 59.67 73.33C54.73 73.33 41.93 73.33 37 73.33C35.9 73.33 35 72.44 35 71.33C35 70.93 35 71.73 35 71.33C35 70.23 35.9 69.33 37 69.33C41.93 69.33 54.73 69.33 59.67 69.33Z" id="dJ6f5JnTe"></path></defs><g><g><g><use xlink:href="#a27Ze40Hw8" opacity="1" fill="#39ff1b" fill-opacity="1"></use></g><g><use xlink:href="#cxPMzWsiw" opacity="1" fill="#ffffff" fill-opacity="1"></use></g><g><use xlink:href="#d1xI2CqeMj" opacity="1" fill="#ffc300" fill-opacity="1"></use></g><g><use xlink:href="#dJ6f5JnTe" opacity="1" fill="#e13636" fill-opacity="1"></use></g></g></g></svg>