<?xml version="1.0" encoding="UTF-8" standalone="no"?>
<!DOCTYPE svg PUBLIC "-//W3C//DTD SVG 1.1//EN" "http://www.w3.org/Graphics/SVG/1.1/DTD/svg11.dtd">
<svg version="1.1" xmlns="http://www.w3.org/2000/svg" xmlns:xlink="http://www.w3.org/1999/xlink" preserveAspectRatio="xMidYMid meet" viewBox="0 0 108 108" width="108" height="108"><defs><path d="M0 0L108 0L108 108L0 108L0 0Z" id="e11aOQbWOu"></path><path d="M42.52 34.76L30.9 34.76L30.9 50.6L48.32 50.6L48.32 41.36L51.23 41.36L51.23 53.23L28 53.23L28 32.12L42.52 32.12L42.52 34.76ZM41.95 44.28L41.95 44.28L38.58 47.33L32.35 41.67L35.72 38.61L38.58 41.22L46.41 34.1L49.78 37.16L41.95 44.28Z" id="a1x7gUKGWi"></path><path d="M64.13 73.58C65.47 73.58 66.56 74.67 66.56 76.01C66.56 76.49 66.56 75.52 66.56 76.01C66.56 77.34 65.47 78.43 64.13 78.43C57.51 78.43 40.05 78.43 33.42 78.43C32.09 78.43 31 77.34 31 76.01C31 75.52 31 76.49 31 76.01C31 74.67 32.09 73.58 33.42 73.58C40.05 73.58 57.51 73.58 64.13 73.58Z" id="gc1FvICl8"></path><path d="M69.8 56.41C71.14 56.41 72.22 57.5 72.22 58.84C72.22 59.32 72.22 58.35 72.22 58.84C72.22 60.18 71.14 61.26 69.8 61.26C63.17 61.26 45.72 61.26 39.09 61.26C37.75 61.26 36.67 60.18 36.67 58.84C36.67 58.35 36.67 59.32 36.67 58.84C36.67 57.5 37.75 56.41 39.09 56.41C45.72 56.41 63.17 56.41 69.8 56.41Z" id="a1XOGwSyEb"></path><path d="M77.58 65.3C78.91 65.3 80 66.39 80 67.72C80 68.21 80 67.24 80 67.72C80 69.06 78.91 70.15 77.58 70.15C70.95 70.15 53.49 70.15 46.87 70.15C45.53 70.15 44.44 69.06 44.44 67.72C44.44 67.24 44.44 68.21 44.44 67.72C44.44 66.39 45.53 65.3 46.87 65.3C53.49 65.3 70.95 65.3 77.58 65.3Z" id="f3C3g7oa4V"></path></defs><g><g><g><use xlink:href="#e11aOQbWOu" opacity="1" fill="#314b57" fill-opacity="1"></use></g><g><use xlink:href="#a1x7gUKGWi" opacity="1" fill="#39ff1b" fill-opacity="1"></use></g><g><use xlink:href="#gc1FvICl8" opacity="1" fill="#e13636" fill-opacity="1"></use></g><g><use xlink:href="#a1XOGwSyEb" opacity="1" fill="#ffffff" fill-opacity="1"></use></g><g><use xlink:href="#f3C3g7oa4V" opacity="1" fill="#ffc300" fill-opacity="1"></use></g></g></g></svg>